<?xml version="1.0" encoding="utf-8"?>
<!-- Generator: Adobe Illustrator 19.2.1, SVG Export Plug-In . SVG Version: 6.00 Build 0)  -->
<svg version="1.1" id="Layer_1" xmlns="http://www.w3.org/2000/svg" xmlns:xlink="http://www.w3.org/1999/xlink" x="0px" y="0px"
	 viewBox="0 0 167.3 47.3" style="enable-background:new 0 0 167.3 47.3;" xml:space="preserve">
<style type="text/css">
	.st0{display:none;}
	.st1{display:inline;fill:none;stroke:#00AEEF;stroke-width:0.8631;stroke-linecap:square;stroke-miterlimit:10;}
	.st2{display:inline;}
	.st3{fill:none;stroke:#3A3A3A;stroke-width:0.5;stroke-linecap:square;stroke-miterlimit:10;}
	.st4{fill:#3A3A3A;}
	.st5{display:inline;fill:#2A2A2A;}
	.st6{display:none;fill:#FFFFFF;stroke:#3A3A3A;stroke-width:0.5;stroke-miterlimit:10;}
	.st7{display:none;fill:#F4A82E;fill-opacity:0.5;stroke:#F4A82E;stroke-miterlimit:10;}
	.st8{fill:#20B51B;fill-opacity:0.5;stroke:#20B51B;stroke-miterlimit:10;}
	.st9{display:none;fill:none;stroke:#555454;stroke-width:0.5;stroke-miterlimit:10;}
	.st10{display:none;fill:none;stroke:#3A3A3A;stroke-miterlimit:10;}
	.st11{display:none;fill:#FFFFFF;stroke:#3A3A3A;stroke-width:0.2791;stroke-miterlimit:10;}
</style>
<g class="st0">
	<polyline class="st1" points="12.6,14.3 12.8,14.6 13.1,14.8 13.3,15.1 13.5,15.4 13.8,15.6 14,15.9 14.2,16.2 14.5,16.4 
		14.7,16.7 14.9,17 15.1,17.2 15.4,17.5 15.6,17.7 15.8,18 16.1,18.3 16.3,18.5 16.5,18.8 16.8,19 17,19.3 17.2,19.6 17.5,19.8 
		17.7,20.1 17.9,20.3 18.2,20.6 18.4,20.8 18.6,21.1 18.8,21.4 19.1,21.6 19.3,21.9 19.5,22.1 19.8,22.4 20,22.6 20.2,22.9 
		20.5,23.1 20.7,23.4 20.9,23.6 21.2,23.9 21.4,24.1 21.6,24.4 21.9,24.6 22.1,24.8 22.3,25.1 22.5,25.3 22.8,25.6 23,25.8 
		23.2,26.1 23.5,26.3 23.7,26.5 23.9,26.8 24.2,27 24.4,27.2 24.6,27.5 24.9,27.7 25.1,27.9 25.3,28.2 25.6,28.4 25.8,28.6 26,28.8 
		26.2,29 26.5,29.3 26.7,29.5 26.9,29.7 27.2,29.9 27.4,30.1 27.6,30.3 27.9,30.5 28.1,30.8 28.3,31 28.6,31.2 28.8,31.4 29,31.6 
		29.3,31.8 29.5,32 29.7,32.2 29.9,32.4 30.2,32.6 30.4,32.8 30.6,32.9 30.9,33.1 31.1,33.3 31.3,33.5 31.6,33.7 31.8,33.9 32,34 
		32.3,34.2 32.5,34.4 32.7,34.6 33,34.7 33.2,34.9 33.4,35.1 33.6,35.2 33.9,35.4 34.1,35.6 34.3,35.7 34.6,35.9 34.8,36.1 35,36.2 
		35.3,36.3 35.5,36.5 35.7,36.7 36,36.8 36.2,36.9 36.4,37.1 36.7,37.2 36.9,37.4 37.1,37.5 37.3,37.6 37.6,37.7 37.8,37.9 38,38 
		38.3,38.1 38.5,38.2 38.7,38.3 39,38.5 39.2,38.6 39.4,38.7 39.7,38.8 39.9,38.9 40.1,39 40.4,39.1 40.6,39.2 40.8,39.3 41,39.4 
		41.3,39.5 41.5,39.6 41.7,39.6 42,39.7 42.2,39.8 42.4,39.9 42.7,39.9 42.9,40 43.1,40.1 43.4,40.2 43.6,40.2 43.8,40.3 44.1,40.4 
		44.3,40.4 44.5,40.4 44.7,40.5 45,40.6 45.2,40.6 45.4,40.6 45.7,40.7 45.9,40.7 46.1,40.8 46.4,40.8 46.6,40.8 46.8,40.9 
		47.1,40.9 47.3,40.9 47.5,40.9 47.8,41 48,41 48.2,41 48.4,41 48.7,41 48.9,41 49.1,41 49.4,41 49.6,41 49.8,41 50.1,41 50.3,41 
		50.5,41 50.8,41 51,40.9 51.2,40.9 51.5,40.9 51.7,40.9 51.9,40.8 52.1,40.8 52.4,40.8 52.6,40.7 52.8,40.7 53.1,40.6 53.3,40.6 
		53.5,40.5 53.8,40.5 54,40.4 54.2,40.4 54.5,40.3 54.7,40.3 54.9,40.2 55.2,40.1 55.4,40.1 55.6,40 55.8,39.9 56.1,39.8 56.3,39.8 
		56.5,39.7 56.8,39.6 57,39.5 57.2,39.4 57.5,39.3 57.7,39.2 57.9,39.2 58.2,39.1 58.4,38.9 58.6,38.8 58.9,38.7 59.1,38.6 
		59.3,38.5 59.5,38.4 59.8,38.3 60,38.2 60.2,38.1 60.5,37.9 60.7,37.8 60.9,37.7 61.2,37.5 61.4,37.4 61.6,37.3 61.9,37.1 62.1,37 
		62.3,36.9 62.6,36.7 62.8,36.6 63,36.4 63.2,36.3 63.5,36.1 63.7,36 63.9,35.8 64.2,35.7 64.4,35.5 64.6,35.3 64.9,35.2 65.1,35 
		65.3,34.8 65.6,34.7 65.8,34.5 66,34.3 66.3,34.1 66.5,34 66.7,33.8 66.9,33.6 67.2,33.4 67.4,33.2 67.6,33 67.9,32.9 68.1,32.7 
		68.3,32.5 68.6,32.3 68.8,32.1 69,31.9 69.3,31.7 69.5,31.5 69.7,31.3 70,31.1 70.2,30.9 70.4,30.7 70.6,30.5 70.9,30.2 71.1,30 
		71.3,29.8 71.6,29.6 71.8,29.4 72,29.2 72.3,28.9 72.5,28.7 72.7,28.5 73,28.3 73.2,28 73.4,27.8 73.7,27.6 73.9,27.4 74.1,27.1 
		74.3,26.9 74.6,26.7 74.8,26.4 75,26.2 75.3,25.9 75.5,25.7 75.7,25.5 76,25.2 76.2,25 76.4,24.7 76.7,24.5 76.9,24.2 77.1,24 
		77.4,23.8 77.6,23.5 77.8,23.3 78,23 78.3,22.8 78.5,22.5 78.7,22.3 79,22 79.2,21.8 79.4,21.5 79.7,21.2 79.9,21 80.1,20.7 
		80.4,20.5 80.6,20.2 80.8,20 81.1,19.7 81.3,19.4 81.5,19.2 81.7,18.9 82,18.7 82.2,18.4 82.4,18.1 82.7,17.9 82.9,17.6 83.1,17.4 
		83.4,17.1 83.6,16.8 83.8,16.6 84.1,16.3 84.3,16 84.5,15.8 84.8,15.5 85,15.3 85.2,15 85.4,14.7 85.7,14.5 85.9,14.2 86.1,13.9 
		86.4,13.7 86.6,13.4 86.8,13.1 87.1,12.9 87.3,12.6 87.5,12.4 87.8,12.1 88,11.8 88.2,11.6 88.5,11.3 88.7,11 88.9,10.8 89.1,10.5 
		89.4,10.3 89.6,10 89.8,9.7 90.1,9.5 90.3,9.2 90.5,9 90.8,8.7 91,8.4 91.2,8.2 91.5,7.9 91.7,7.7 91.9,7.4 92.2,7.2 92.4,6.9 
		92.6,6.7 92.8,6.4 93.1,6.2 93.3,5.9 93.5,5.7 93.8,5.4 94,5.2 94.2,4.9 94.5,4.7 94.7,4.4 94.9,4.2 95.2,4 95.4,3.7 95.6,3.5 
		95.9,3.2 96.1,3 96.3,2.8 96.5,2.5 96.8,2.3 97,2.1 97.2,1.8 97.5,1.6 97.7,1.4 97.9,1.2 98.2,0.9 98.4,0.7 98.6,0.5 98.9,0.3 
		99.1,0 99.3,-0.2 99.6,-0.4 99.8,-0.6 100,-0.8 100.2,-1 100.5,-1.3 100.7,-1.5 100.9,-1.7 101.2,-1.9 101.4,-2.1 101.6,-2.3 
		101.9,-2.5 102.1,-2.7 102.3,-2.9 102.6,-3.1 102.8,-3.3 103,-3.5 103.3,-3.7 103.5,-3.8 103.7,-4 103.9,-4.2 104.2,-4.4 
		104.4,-4.6 104.6,-4.8 104.9,-5 105.1,-5.1 105.3,-5.3 105.6,-5.5 105.8,-5.6 106,-5.8 106.3,-6 106.5,-6.1 106.7,-6.3 107,-6.5 
		107.2,-6.6 107.4,-6.8 107.6,-6.9 107.9,-7.1 108.1,-7.2 108.3,-7.4 108.6,-7.5 108.8,-7.6 109,-7.8 109.3,-7.9 109.5,-8.1 
		109.7,-8.2 110,-8.3 110.2,-8.5 110.4,-8.6 110.7,-8.7 110.9,-8.8 111.1,-9 111.3,-9.1 111.6,-9.2 111.8,-9.3 112,-9.4 112.3,-9.5 
		112.5,-9.6 112.7,-9.7 113,-9.8 113.2,-9.9 113.4,-10 113.7,-10.1 113.9,-10.2 114.1,-10.3 114.4,-10.4 114.6,-10.4 114.8,-10.5 
		115,-10.6 115.3,-10.7 115.5,-10.8 115.7,-10.8 116,-10.9 116.2,-10.9 116.4,-11 116.7,-11.1 116.9,-11.1 117.1,-11.2 117.4,-11.2 
		117.6,-11.3 117.8,-11.3 118.1,-11.4 118.3,-11.4 118.5,-11.5 118.7,-11.5 119,-11.5 119.2,-11.6 119.4,-11.6 119.7,-11.6 
		119.9,-11.6 120.1,-11.7 120.4,-11.7 120.6,-11.7 120.8,-11.7 121.1,-11.7 121.3,-11.7 121.5,-11.7 121.8,-11.7 122,-11.7 
		122.2,-11.7 122.4,-11.7 122.7,-11.7 122.9,-11.7 123.1,-11.7 123.4,-11.7 123.6,-11.7 123.8,-11.6 124.1,-11.6 124.3,-11.6 
		124.5,-11.6 124.8,-11.5 125,-11.5 125.2,-11.4 125.5,-11.4 125.7,-11.4 125.9,-11.3 126.1,-11.3 126.4,-11.2 126.6,-11.2 
		126.8,-11.1 127.1,-11.1 127.3,-11 127.5,-10.9 127.8,-10.9 128,-10.8 128.2,-10.7 128.5,-10.7 128.7,-10.6 128.9,-10.5 
		129.2,-10.4 129.4,-10.3 129.6,-10.3 129.8,-10.2 130.1,-10.1 130.3,-10 130.5,-9.9 130.8,-9.8 131,-9.7 131.2,-9.6 131.5,-9.5 
		131.7,-9.4 131.9,-9.3 132.2,-9.2 132.4,-9.1 132.6,-8.9 132.9,-8.8 133.1,-8.7 133.3,-8.6 133.5,-8.4 133.8,-8.3 134,-8.2 
		134.2,-8 134.5,-7.9 134.7,-7.8 134.9,-7.6 135.2,-7.5 135.4,-7.3 135.6,-7.2 135.9,-7 136.1,-6.9 136.3,-6.7 136.6,-6.6 
		136.8,-6.4 137,-6.3 137.2,-6.1 137.5,-5.9 137.7,-5.8 137.9,-5.6 138.2,-5.4 138.4,-5.3 138.6,-5.1 138.9,-4.9 139.1,-4.7 
		139.3,-4.6 139.6,-4.4 139.8,-4.2 140,-4 140.3,-3.8 140.5,-3.6 140.7,-3.4 140.9,-3.2 141.2,-3.1 141.4,-2.8 141.6,-2.7 
		141.9,-2.5 142.1,-2.2 142.3,-2.1 142.6,-1.8 142.8,-1.6 143,-1.4 143.3,-1.2 143.5,-1 143.7,-0.8 144,-0.6 144.2,-0.4 144.4,-0.2 
		144.6,0.1 144.9,0.3 145.1,0.5 145.3,0.7 145.6,1 145.8,1.2 146,1.4 146.3,1.6 146.5,1.9 146.7,2.1 147,2.3 147.2,2.6 147.4,2.8 
		147.7,3.1 147.9,3.3 148.1,3.5 148.3,3.7 148.6,4 148.8,4.3 149,4.5 149.3,4.7 149.5,5 149.7,5.2 150,5.5 150.2,5.7 150.4,6 
		150.7,6.2 150.9,6.5 151.1,6.7 151.4,7 151.6,7.2 151.8,7.5 152,7.7 152.3,8 152.5,8.2 152.7,8.5 153,8.8 153.2,9 153.4,9.3 
		153.7,9.5 153.9,9.8 154.1,10 154.4,10.3 154.6,10.6 154.8,10.8 155.1,11.1 155.3,11.3 155.5,11.6 155.7,11.9 156,12.1 156.2,12.4 
		156.4,12.7 156.7,12.9 156.9,13.2 157.1,13.4 157.4,13.7 157.6,14 157.8,14.2 158.1,14.5 158.3,14.8 158.5,15 	"/>
</g>
<g class="st0">
	<g class="st2">
		<line class="st3" x1="12.4" y1="-11.5" x2="12.4" y2="40.7"/>
		<g>
			<rect x="10.7" y="-11.7" class="st4" width="3.3" height="0.5"/>
		</g>
		<g>
			<rect x="10.7" y="40.5" class="st4" width="3.3" height="0.5"/>
		</g>
	</g>
</g>
<g class="st0">
	<path class="st5" d="M8.2-7.2H7.3v-5.9C7-13,6.8-12.8,6.4-12.6s-0.7,0.4-1,0.5V-13c0.5-0.2,1-0.5,1.4-0.9s0.7-0.7,0.8-1h0.6V-7.2z"
		/>
</g>
<g class="st0">
	<path class="st5" d="M4.3,41c0-0.9,0.1-1.6,0.3-2.2c0.2-0.5,0.5-1,0.8-1.3c0.4-0.3,0.8-0.4,1.4-0.4c0.4,0,0.8,0.1,1.1,0.2
		c0.3,0.2,0.6,0.4,0.8,0.7c0.2,0.3,0.4,0.7,0.5,1.1c0.1,0.4,0.2,1,0.2,1.8c0,0.9-0.1,1.6-0.3,2.2c-0.2,0.5-0.5,1-0.8,1.3
		c-0.4,0.3-0.8,0.4-1.4,0.4c-0.7,0-1.3-0.3-1.7-0.8C4.6,43.5,4.3,42.4,4.3,41z M5.3,41c0,1.2,0.1,2.1,0.4,2.5
		c0.3,0.4,0.7,0.6,1.1,0.6s0.8-0.2,1.1-0.6c0.3-0.4,0.4-1.2,0.4-2.5c0-1.3-0.1-2.1-0.4-2.5c-0.3-0.4-0.7-0.6-1.1-0.6
		c-0.4,0-0.8,0.2-1,0.5C5.4,38.9,5.3,39.8,5.3,41z"/>
</g>
<circle class="st6" cx="12.4" cy="14.6" r="2.7"/>
<polyline class="st7" points="3.6,41 3.6,5.6 25.2,5.6 25.2,41 "/>
<polyline class="st8" points="26.6,41 26.6,5.6 48.2,5.6 48.2,41 "/>
<line class="st9" x1="3.1" y1="41" x2="164.8" y2="41"/>
<line class="st10" x1="2.2" y1="4.1" x2="2.2" y2="41.2"/>
<circle class="st11" cx="2.2" cy="2.6" r="1.5"/>
<circle class="st11" cx="2.2" cy="41" r="1.5"/>
</svg>
