<?xml version="1.0" encoding="utf-8"?>
<!-- Generator: Adobe Illustrator 19.2.1, SVG Export Plug-In . SVG Version: 6.00 Build 0)  -->
<svg version="1.1" id="Layer_1" xmlns="http://www.w3.org/2000/svg" xmlns:xlink="http://www.w3.org/1999/xlink" x="0px" y="0px"
	 viewBox="0 0 167.3 87.9" style="enable-background:new 0 0 167.3 87.9;" xml:space="preserve">
<style type="text/css">
	.st0{fill:none;stroke:#00AEEF;stroke-width:0.6;stroke-linecap:square;stroke-miterlimit:10;}
	.st1{fill:none;stroke:#3A3A3A;stroke-width:0.5;stroke-linecap:square;stroke-miterlimit:10;}
	.st2{fill:#3A3A3A;}
	.st3{fill:#2A2A2A;}
	.st4{display:none;fill:#FFFFFF;stroke:#3A3A3A;stroke-width:0.5;stroke-miterlimit:10;}
</style>
<g>
	<polyline class="st0" points="12.6,43.7 12.8,43.9 13.1,44.2 13.3,44.4 13.5,44.7 13.8,45 14,45.2 14.2,45.5 14.5,45.8 14.7,46 
		14.9,46.3 15.1,46.6 15.4,46.8 15.6,47.1 15.8,47.3 16.1,47.6 16.3,47.8 16.5,48.1 16.8,48.4 17,48.6 17.2,48.9 17.5,49.2 
		17.7,49.4 17.9,49.7 18.2,49.9 18.4,50.2 18.6,50.4 18.8,50.7 19.1,50.9 19.3,51.2 19.5,51.5 19.8,51.7 20,52 20.2,52.2 20.5,52.5 
		20.7,52.7 20.9,53 21.2,53.2 21.4,53.5 21.6,53.7 21.9,53.9 22.1,54.2 22.3,54.4 22.5,54.7 22.8,54.9 23,55.2 23.2,55.4 23.5,55.6 
		23.7,55.9 23.9,56.1 24.2,56.3 24.4,56.6 24.6,56.8 24.9,57 25.1,57.2 25.3,57.5 25.6,57.7 25.8,57.9 26,58.2 26.2,58.4 26.5,58.6 
		26.7,58.8 26.9,59 27.2,59.2 27.4,59.4 27.6,59.7 27.9,59.9 28.1,60.1 28.3,60.3 28.6,60.5 28.8,60.7 29,60.9 29.3,61.1 29.5,61.3 
		29.7,61.5 29.9,61.7 30.2,61.9 30.4,62.1 30.6,62.3 30.9,62.5 31.1,62.7 31.3,62.9 31.6,63 31.8,63.2 32,63.4 32.3,63.6 32.5,63.7 
		32.7,63.9 33,64.1 33.2,64.3 33.4,64.4 33.6,64.6 33.9,64.7 34.1,64.9 34.3,65.1 34.6,65.2 34.8,65.4 35,65.5 35.3,65.7 35.5,65.8 
		35.7,66 36,66.1 36.2,66.3 36.4,66.4 36.7,66.5 36.9,66.7 37.1,66.8 37.3,67 37.6,67.1 37.8,67.2 38,67.3 38.3,67.4 38.5,67.6 
		38.7,67.7 39,67.8 39.2,67.9 39.4,68 39.7,68.1 39.9,68.2 40.1,68.3 40.4,68.4 40.6,68.5 40.8,68.6 41,68.7 41.3,68.8 41.5,68.9 
		41.7,69 42,69.1 42.2,69.1 42.4,69.2 42.7,69.3 42.9,69.3 43.1,69.4 43.4,69.5 43.6,69.6 43.8,69.6 44.1,69.7 44.3,69.7 44.5,69.8 
		44.7,69.9 45,69.9 45.2,69.9 45.4,70 45.7,70 45.9,70.1 46.1,70.1 46.4,70.1 46.6,70.2 46.8,70.2 47.1,70.2 47.3,70.2 47.5,70.3 
		47.8,70.3 48,70.3 48.2,70.3 48.4,70.3 48.7,70.3 48.9,70.3 49.1,70.3 49.4,70.3 49.6,70.3 49.8,70.3 50.1,70.3 50.3,70.3 
		50.5,70.3 50.8,70.3 51,70.3 51.2,70.2 51.5,70.2 51.7,70.2 51.9,70.1 52.1,70.1 52.4,70.1 52.6,70 52.8,70 53.1,70 53.3,69.9 
		53.5,69.9 53.8,69.8 54,69.8 54.2,69.7 54.5,69.7 54.7,69.6 54.9,69.5 55.2,69.5 55.4,69.4 55.6,69.3 55.8,69.3 56.1,69.2 
		56.3,69.1 56.5,69 56.8,68.9 57,68.8 57.2,68.8 57.5,68.7 57.7,68.6 57.9,68.5 58.2,68.4 58.4,68.3 58.6,68.2 58.9,68.1 59.1,68 
		59.3,67.8 59.5,67.7 59.8,67.6 60,67.5 60.2,67.4 60.5,67.3 60.7,67.1 60.9,67 61.2,66.9 61.4,66.8 61.6,66.6 61.9,66.5 62.1,66.4 
		62.3,66.2 62.6,66.1 62.8,65.9 63,65.8 63.2,65.6 63.5,65.5 63.7,65.3 63.9,65.2 64.2,65 64.4,64.8 64.6,64.7 64.9,64.5 65.1,64.3 
		65.3,64.2 65.6,64 65.8,63.8 66,63.7 66.3,63.5 66.5,63.3 66.7,63.1 66.9,62.9 67.2,62.8 67.4,62.6 67.6,62.4 67.9,62.2 68.1,62 
		68.3,61.8 68.6,61.6 68.8,61.4 69,61.2 69.3,61 69.5,60.8 69.7,60.6 70,60.4 70.2,60.2 70.4,60 70.6,59.8 70.9,59.6 71.1,59.4 
		71.3,59.1 71.6,58.9 71.8,58.7 72,58.5 72.3,58.3 72.5,58.1 72.7,57.8 73,57.6 73.2,57.4 73.4,57.1 73.7,56.9 73.9,56.7 74.1,56.5 
		74.3,56.2 74.6,56 74.8,55.8 75,55.5 75.3,55.3 75.5,55 75.7,54.8 76,54.6 76.2,54.3 76.4,54.1 76.7,53.8 76.9,53.6 77.1,53.3 
		77.4,53.1 77.6,52.8 77.8,52.6 78,52.4 78.3,52.1 78.5,51.9 78.7,51.6 79,51.3 79.2,51.1 79.4,50.8 79.7,50.6 79.9,50.3 80.1,50.1 
		80.4,49.8 80.6,49.6 80.8,49.3 81.1,49 81.3,48.8 81.5,48.5 81.7,48.3 82,48 82.2,47.7 82.4,47.5 82.7,47.2 82.9,47 83.1,46.7 
		83.4,46.4 83.6,46.2 83.8,45.9 84.1,45.6 84.3,45.4 84.5,45.1 84.8,44.9 85,44.6 85.2,44.3 85.4,44.1 85.7,43.8 85.9,43.5 
		86.1,43.3 86.4,43 86.6,42.7 86.8,42.5 87.1,42.2 87.3,42 87.5,41.7 87.8,41.4 88,41.2 88.2,40.9 88.5,40.6 88.7,40.4 88.9,40.1 
		89.1,39.8 89.4,39.6 89.6,39.3 89.8,39.1 90.1,38.8 90.3,38.5 90.5,38.3 90.8,38 91,37.8 91.2,37.5 91.5,37.3 91.7,37 91.9,36.8 
		92.2,36.5 92.4,36.3 92.6,36 92.8,35.8 93.1,35.5 93.3,35.3 93.5,35 93.8,34.8 94,34.5 94.2,34.3 94.5,34 94.7,33.8 94.9,33.5 
		95.2,33.3 95.4,33.1 95.6,32.8 95.9,32.6 96.1,32.3 96.3,32.1 96.5,31.9 96.8,31.6 97,31.4 97.2,31.2 97.5,30.9 97.7,30.7 
		97.9,30.5 98.2,30.3 98.4,30 98.6,29.8 98.9,29.6 99.1,29.4 99.3,29.2 99.6,28.9 99.8,28.7 100,28.5 100.2,28.3 100.5,28.1 
		100.7,27.9 100.9,27.7 101.2,27.4 101.4,27.3 101.6,27 101.9,26.9 102.1,26.7 102.3,26.4 102.6,26.3 102.8,26.1 103,25.9 
		103.3,25.7 103.5,25.5 103.7,25.3 103.9,25.1 104.2,24.9 104.4,24.7 104.6,24.6 104.9,24.4 105.1,24.2 105.3,24 105.6,23.9 
		105.8,23.7 106,23.5 106.3,23.4 106.5,23.2 106.7,23 107,22.9 107.2,22.7 107.4,22.6 107.6,22.4 107.9,22.3 108.1,22.1 108.3,22 
		108.6,21.8 108.8,21.7 109,21.6 109.3,21.4 109.5,21.3 109.7,21.1 110,21 110.2,20.9 110.4,20.8 110.7,20.6 110.9,20.5 111.1,20.4 
		111.3,20.3 111.6,20.2 111.8,20 112,19.9 112.3,19.8 112.5,19.7 112.7,19.6 113,19.5 113.2,19.4 113.4,19.3 113.7,19.2 113.9,19.2 
		114.1,19.1 114.4,19 114.6,18.9 114.8,18.8 115,18.7 115.3,18.7 115.5,18.6 115.7,18.5 116,18.4 116.2,18.4 116.4,18.3 116.7,18.3 
		116.9,18.2 117.1,18.1 117.4,18.1 117.6,18.1 117.8,18 118.1,18 118.3,17.9 118.5,17.9 118.7,17.8 119,17.8 119.2,17.8 119.4,17.7 
		119.7,17.7 119.9,17.7 120.1,17.7 120.4,17.6 120.6,17.6 120.8,17.6 121.1,17.6 121.3,17.6 121.5,17.6 121.8,17.6 122,17.6 
		122.2,17.6 122.4,17.6 122.7,17.6 122.9,17.6 123.1,17.6 123.4,17.6 123.6,17.7 123.8,17.7 124.1,17.7 124.3,17.7 124.5,17.8 
		124.8,17.8 125,17.8 125.2,17.9 125.5,17.9 125.7,18 125.9,18 126.1,18.1 126.4,18.1 126.6,18.1 126.8,18.2 127.1,18.3 127.3,18.3 
		127.5,18.4 127.8,18.5 128,18.5 128.2,18.6 128.5,18.7 128.7,18.7 128.9,18.8 129.2,18.9 129.4,19 129.6,19.1 129.8,19.2 
		130.1,19.3 130.3,19.3 130.5,19.4 130.8,19.5 131,19.6 131.2,19.7 131.5,19.9 131.7,19.9 131.9,20.1 132.2,20.2 132.4,20.3 
		132.6,20.4 132.9,20.5 133.1,20.6 133.3,20.8 133.5,20.9 133.8,21 134,21.2 134.2,21.3 134.5,21.4 134.7,21.6 134.9,21.7 
		135.2,21.8 135.4,22 135.6,22.2 135.9,22.3 136.1,22.4 136.3,22.6 136.6,22.8 136.8,22.9 137,23.1 137.2,23.2 137.5,23.4 
		137.7,23.6 137.9,23.7 138.2,23.9 138.4,24.1 138.6,24.2 138.9,24.4 139.1,24.6 139.3,24.8 139.6,25 139.8,25.1 140,25.3 
		140.3,25.5 140.5,25.7 140.7,25.9 140.9,26.1 141.2,26.3 141.4,26.5 141.6,26.7 141.9,26.9 142.1,27.1 142.3,27.3 142.6,27.5 
		142.8,27.7 143,27.9 143.3,28.1 143.5,28.3 143.7,28.5 144,28.7 144.2,29 144.4,29.2 144.6,29.4 144.9,29.6 145.1,29.8 145.3,30.1 
		145.6,30.3 145.8,30.5 146,30.8 146.3,31 146.5,31.2 146.7,31.4 147,31.7 147.2,31.9 147.4,32.1 147.7,32.4 147.9,32.6 148.1,32.8 
		148.3,33.1 148.6,33.3 148.8,33.6 149,33.8 149.3,34.1 149.5,34.3 149.7,34.5 150,34.8 150.2,35 150.4,35.3 150.7,35.6 150.9,35.8 
		151.1,36.1 151.4,36.3 151.6,36.6 151.8,36.8 152,37.1 152.3,37.3 152.5,37.6 152.7,37.8 153,38.1 153.2,38.3 153.4,38.6 
		153.7,38.9 153.9,39.1 154.1,39.4 154.4,39.6 154.6,39.9 154.8,40.2 155.1,40.4 155.3,40.7 155.5,40.9 155.7,41.2 156,41.5 
		156.2,41.7 156.4,42 156.7,42.3 156.9,42.5 157.1,42.8 157.4,43 157.6,43.3 157.8,43.6 158.1,43.8 158.3,44.1 158.5,44.3 	"/>
</g>
<g>
	<g>
		<line class="st1" x1="12.4" y1="17.8" x2="12.4" y2="70.1"/>
		<g>
			<rect x="10.7" y="17.6" class="st2" width="3.3" height="0.5"/>
		</g>
		<g>
			<rect x="10.7" y="69.8" class="st2" width="3.3" height="0.5"/>
		</g>
	</g>
</g>
<g>
	<path class="st3" d="M8.9,20.7H8.2v-4.4c-0.1,0.1-0.4,0.3-0.7,0.4C7.3,16.9,7,17,6.8,17.1v-0.7c0.4-0.1,0.7-0.4,1-0.7
		c0.3-0.3,0.5-0.5,0.6-0.7h0.4C8.9,15,8.9,20.7,8.9,20.7z"/>
</g>
<g>
	<path class="st3" d="M6,69.8c0-0.7,0.1-1.2,0.2-1.6c0.1-0.4,0.4-0.7,0.6-1c0.3-0.2,0.6-0.3,1-0.3c0.3,0,0.6,0.1,0.8,0.1
		c0.2,0.1,0.4,0.3,0.6,0.5c0.1,0.2,0.3,0.5,0.4,0.8c0.1,0.3,0.1,0.7,0.1,1.3c0,0.7-0.1,1.2-0.2,1.6c-0.1,0.4-0.4,0.7-0.6,1
		c-0.3,0.2-0.6,0.3-1,0.3c-0.5,0-1-0.2-1.3-0.6C6.2,71.7,6,71,6,69.8z M6.7,69.8c0,0.9,0.1,1.6,0.3,1.9s0.5,0.4,0.8,0.4
		s0.6-0.1,0.8-0.4s0.3-0.9,0.3-1.9c0-1-0.1-1.6-0.3-1.9c-0.2-0.3-0.5-0.4-0.8-0.4s-0.6,0.1-0.7,0.4C6.8,68.3,6.7,68.9,6.7,69.8z"/>
</g>
<circle class="st4" cx="49.6" cy="70.3" r="2.7"/>
</svg>
